<?xml version="1.0" standalone="no"?>
<!DOCTYPE svg PUBLIC "-//W3C//DTD SVG 20010904//EN"
 "http://www.w3.org/TR/2001/REC-SVG-20010904/DTD/svg10.dtd">
<svg version="1.0" xmlns="http://www.w3.org/2000/svg"
 width="612.000000pt" height="612.000000pt" viewBox="0 0 612.000000 612.000000"
 preserveAspectRatio="xMidYMid meet">
<metadata>
Created by potrace 1.16, written by Peter Selinger 2001-2019
</metadata>
<g transform="translate(0.000000,612.000000) scale(0.100000,-0.100000)"
fill="#000000" stroke="none">
<path d="M4350 4559 c-212 -55 -260 -89 -587 -424 l-268 -274 -145 41 c-80 22
-147 42 -149 44 -2 2 10 19 28 39 40 46 42 95 6 148 -32 46 -71 67 -126 67
-39 0 -47 -6 -128 -85 l-87 -85 -540 150 c-296 82 -554 150 -573 150 -29 0
-46 -12 -118 -82 l-84 -83 193 -111 c106 -62 281 -162 388 -224 107 -61 240
-138 295 -170 55 -32 188 -108 295 -170 107 -62 206 -119 219 -127 23 -15 22
-17 -206 -246 -219 -222 -280 -294 -447 -529 -26 -38 -52 -68 -56 -68 -5 0
-91 23 -192 51 -320 88 -366 99 -391 90 -12 -5 -48 -36 -79 -68 l-57 -58 270
-155 c194 -112 268 -159 265 -170 -2 -8 -15 -44 -27 -79 -35 -99 -3 -119 116
-70 30 12 56 21 59 18 2 -2 70 -119 150 -259 81 -140 152 -259 157 -265 7 -7
31 11 71 53 l61 63 -6 52 c-3 29 -35 158 -71 288 -36 130 -66 241 -66 247 0 6
55 50 123 98 195 140 259 195 489 422 215 213 216 214 231 191 14 -22 162
-279 627 -1087 l175 -303 83 84 c69 71 82 89 82 117 0 31 -28 136 -230 859
l-71 254 86 87 c81 83 85 90 85 131 0 81 -68 149 -149 149 -20 0 -43 -11 -66
-31 -20 -18 -37 -30 -39 -28 -2 2 -22 69 -44 149 l-40 145 293 290 c258 256
296 298 328 360 73 144 113 321 88 383 -23 56 -91 65 -221 31z"/>
</g>
</svg>
